HIERARCHY
ROOT Hips
{
	OFFSET -0.001795 -0.223333 0.028219
	CHANNELS 6 Xposition Yposition Zposition Zrotation Yrotation Xrotation 
	JOINT LeftUpLeg
	{
		OFFSET 0.069520 -0.091406 -0.006815
		CHANNELS 3 Zrotation Yrotation Xrotation
		JOINT LeftLeg
		{
			OFFSET 0.034277 -0.375199 -0.004496
			CHANNELS 3 Zrotation Yrotation Xrotation
			JOINT LeftFoot
			{
				OFFSET -0.013596 -0.397961 -0.043693
				CHANNELS 3 Zrotation Yrotation Xrotation
				JOINT LeftToe
				{
					OFFSET 0.026358 -0.055791 0.119288
					CHANNELS 3 Zrotation Yrotation Xrotation
					End Site
					{
						OFFSET 0.000000 0.000000 0.000000
					}
				}
			}
		}
	}
	JOINT RightUpLeg
	{
		OFFSET -0.067670 -0.090522 -0.004320
		CHANNELS 3 Zrotation Yrotation Xrotation
		JOINT RightLeg
		{
			OFFSET -0.038290 -0.382569 -0.008850
			CHANNELS 3 Zrotation Yrotation Xrotation
			JOINT RightFoot
			{
				OFFSET 0.015774 -0.398415 -0.042312
				CHANNELS 3 Zrotation Yrotation Xrotation
				JOINT RightToe
				{
					OFFSET -0.025372 -0.048144 0.123348
					CHANNELS 3 Zrotation Yrotation Xrotation
					End Site
					{
						OFFSET 0.000000 0.000000 0.000000
					}
				}
			}
		}
	}
	JOINT Spine
	{
		OFFSET -0.002533 0.108963 -0.026696
		CHANNELS 3 Zrotation Yrotation Xrotation
		JOINT Spine1
		{
			OFFSET 0.005487 0.135180 0.001092
			CHANNELS 3 Zrotation Yrotation Xrotation
			JOINT Spine2
			{
				OFFSET 0.001457 0.052922 0.025425
				CHANNELS 3 Zrotation Yrotation Xrotation
				JOINT Neck
				{
					OFFSET -0.002778 0.213870 -0.042857
					CHANNELS 3 Zrotation Yrotation Xrotation
					JOINT Head
					{
						OFFSET 0.005152 0.064970 0.051349
						CHANNELS 3 Zrotation Yrotation Xrotation
						End Site
						{
							OFFSET 0.000000 0.000000 0.000000
						}
					}
				}
				JOINT LeftShoulder
				{
					OFFSET 0.078845 0.121749 -0.034090
					CHANNELS 3 Zrotation Yrotation Xrotation
					JOINT LeftArm
					{
						OFFSET 0.090977 0.030469 -0.008868
						CHANNELS 3 Zrotation Yrotation Xrotation
						JOINT LeftForeArm
						{
							OFFSET 0.259612 -0.012772 -0.027456
							CHANNELS 3 Zrotation Yrotation Xrotation
							JOINT LeftHand
							{
								OFFSET 0.249234 0.008986 -0.001171
								CHANNELS 3 Zrotation Yrotation Xrotation
								End Site
								{
									OFFSET 0.000000 0.000000 0.000000
								}
							}
						}
					}
				}
				JOINT RightShoulder
				{
					OFFSET -0.081759 0.118833 -0.038615
					CHANNELS 3 Zrotation Yrotation Xrotation
					JOINT RightArm
					{
						OFFSET -0.096012 0.032551 -0.009143
						CHANNELS 3 Zrotation Yrotation Xrotation
						JOINT RightForeArm
						{
							OFFSET -0.253742 -0.013329 -0.021401
							CHANNELS 3 Zrotation Yrotation Xrotation
							JOINT RightHand
							{
								OFFSET -0.255298 0.007772 -0.005559
								CHANNELS 3 Zrotation Yrotation Xrotation
								End Site
								{
									OFFSET 0.000000 0.000000 0.000000
								}
							}
						}
					}
				}
			}
		}
	}
}
MOTION
Frames: 13
Frame Time: 0.050000
0.345297 0.940315 0.071367 -2.310928 -19.392020 15.268516 10.902065 0.864489 -20.087768 -0.993593 0.138423 4.832140 5.060011 10.528137 6.290081 0.000000 0.000000 0.000000 0.874660 4.243586 -28.835913 -0.277125 0.972701 13.262681 -1.046652 -7.255174 6.571255 0.000000 0.000000 0.000000 -0.051502 -0.055586 19.877777 1.086097 -0.386867 -0.276612 -7.744905 3.968821 7.621032 9.833018 -4.888831 -17.692225 0.000000 0.000000 0.000000 15.304857 -40.662733 10.158526 3.690528 -62.820386 -4.966730 26.596594 -2.838485 -0.352303 0.000000 0.000000 0.000000 -9.860400 31.799636 9.463637 21.045075 49.871005 4.204787 -31.058192 15.975728 -3.364283 0.000000 0.000000 0.000000 
0.352538 0.937498 0.079086 -2.931849 -19.400072 15.182241 10.914759 0.895844 -20.328069 -1.096695 0.180230 6.591448 5.132840 10.699489 4.365294 0.000000 0.000000 0.000000 0.522132 4.271639 -29.247745 0.152423 1.060899 14.998152 -0.967306 -6.392665 5.410314 0.000000 0.000000 0.000000 -0.698017 0.091312 19.671059 0.537906 -0.152821 -0.507268 -7.542921 3.170173 8.539422 9.315227 -4.854415 -16.816351 0.000000 0.000000 0.000000 10.327119 -37.166334 10.823035 -12.267577 -60.290513 3.345434 32.514322 -16.122896 -3.635953 0.000000 0.000000 0.000000 -3.444338 26.848071 8.994956 37.160994 38.905032 7.077960 -39.267603 42.761640 -14.088595 0.000000 0.000000 0.000000 
0.362410 0.934516 0.090031 -3.611789 -18.877654 14.686190 11.144341 0.930257 -20.338786 -1.479941 0.280706 7.945210 5.229566 10.943845 3.145366 0.000000 0.000000 0.000000 0.649316 4.331160 -29.514813 -0.587354 1.409805 16.925447 -1.089659 -6.387745 4.978202 0.000000 0.000000 0.000000 -1.165847 0.178759 19.654047 0.246391 -0.028045 -0.442457 -7.340724 2.106144 8.946024 8.549798 -4.643165 -15.893927 0.000000 0.000000 0.000000 2.911762 -32.646578 11.656410 -24.812690 -54.289439 7.927380 36.654482 -36.005257 -9.701030 0.000000 0.000000 0.000000 2.079546 21.013503 7.389422 44.684884 21.573166 2.877407 -34.001553 70.782579 -22.897492 0.000000 0.000000 0.000000 
0.375544 0.931156 0.102496 -3.338046 -19.017449 13.262612 9.895345 0.664346 -19.944014 -1.748057 0.402893 10.035701 5.037272 10.597850 1.571645 0.000000 0.000000 0.000000 -0.279760 4.151860 -29.450974 -1.117215 1.869501 19.704010 -0.490875 -4.311187 3.955250 0.000000 0.000000 0.000000 -1.596892 0.304397 20.149875 -0.200982 0.162270 -0.453120 -7.233046 1.715274 9.546361 7.952234 -4.420380 -15.464499 0.000000 0.000000 0.000000 -1.366846 -28.665370 11.341479 -34.637327 -47.068328 9.459339 35.381420 -53.277089 -13.999270 0.000000 0.000000 0.000000 4.550366 14.683407 4.946392 46.908178 6.231598 -2.576762 64.526220 82.534350 58.653506 0.000000 0.000000 0.000000 
0.390502 0.929147 0.114940 -3.015250 -18.519881 12.597242 8.677243 0.410880 -20.211579 -2.216473 0.568261 11.673015 5.176886 10.918866 0.378308 0.000000 0.000000 0.000000 -1.098174 4.187478 -30.542734 -1.609077 2.419251 22.971431 -0.721735 -5.037566 4.303459 0.000000 0.000000 0.000000 -1.398349 0.239022 20.288088 -0.975230 0.486135 -0.941380 -7.396731 0.713505 10.473239 8.521658 -4.946133 -15.038208 0.000000 0.000000 0.000000 -5.056493 -24.885670 10.818249 -39.706158 -40.203548 8.394600 22.820327 -67.127948 -9.577484 0.000000 0.000000 0.000000 4.979443 8.856146 2.551074 47.715920 -7.495772 -7.837462 105.848558 68.889757 83.612560 0.000000 0.000000 0.000000 
0.404414 0.929290 0.125446 -2.437231 -18.221983 11.879529 7.514486 0.169040 -20.170230 -2.910294 0.759430 12.166749 4.726802 9.975632 0.570569 0.000000 0.000000 0.000000 -2.127070 4.126972 -31.365387 -1.459762 2.782744 25.922132 -0.827709 -5.588638 4.878720 0.000000 0.000000 0.000000 -1.458488 0.206093 19.646844 -1.012588 0.531531 -0.174219 -8.086708 1.068951 10.321966 9.241839 -5.511500 -13.906370 0.000000 0.000000 0.000000 -8.460885 -22.182092 10.279585 -41.663910 -34.562069 6.530553 -8.707130 -73.309144 12.613096 0.000000 0.000000 0.000000 5.057468 5.116477 1.141154 48.345449 -18.108941 -12.055990 109.262346 58.026353 74.660609 0.000000 0.000000 0.000000 
0.414091 0.932574 0.133980 -2.076783 -17.886722 11.992742 6.103401 -0.151138 -19.415474 -2.850153 0.659861 10.545136 4.778393 10.116960 1.303063 0.000000 0.000000 0.000000 -2.380642 4.202172 -32.150314 -1.958134 3.140169 27.350124 -1.290279 -6.067183 3.869958 0.000000 0.000000 0.000000 -1.012639 0.064462 18.900400 -0.903119 0.474173 -0.363268 -8.878381 1.401799 11.040774 9.793360 -5.784468 -14.393298 0.000000 0.000000 0.000000 -9.563369 -20.303744 9.577678 -44.744753 -31.310350 5.786325 -27.624963 -73.660050 27.313322 0.000000 0.000000 0.000000 4.348790 1.360537 -0.187116 48.472976 -23.639478 -14.340635 110.503484 50.266621 66.307456 0.000000 0.000000 0.000000 
0.418511 0.938232 0.140707 -2.220696 -18.311806 12.186509 5.720192 -0.230446 -18.154662 -2.763182 0.568031 8.409448 5.214107 10.999789 3.259662 0.000000 0.000000 0.000000 -1.920818 4.356773 -32.235210 -2.227151 3.106842 26.345459 -0.976771 -5.152357 3.539863 0.000000 0.000000 0.000000 -0.817818 -0.005869 17.666028 -0.732197 0.407964 -0.171004 -9.487617 2.249980 11.258152 11.056138 -6.398936 -15.227013 0.000000 0.000000 0.000000 -10.562759 -17.951071 8.527953 -47.351991 -28.315111 4.957450 -38.098245 -72.029531 34.572785 0.000000 0.000000 0.000000 5.387736 -0.079727 -0.854318 48.497730 -26.638484 -15.504613 111.931621 46.233363 62.773219 0.000000 0.000000 0.000000 
0.417422 0.942449 0.146190 -1.815121 -17.196862 12.777056 4.788706 -0.456965 -17.361593 -2.200648 0.364031 6.073638 4.960509 10.563695 4.483092 0.000000 0.000000 0.000000 -1.453333 4.032840 -30.497811 -3.071040 2.647250 22.051724 -0.241135 -3.160921 3.282619 0.000000 0.000000 0.000000 -0.766397 -0.085810 16.049763 -0.063096 0.123568 0.500239 -9.674755 1.985486 10.927874 10.857436 -5.933918 -16.838102 0.000000 0.000000 0.000000 -11.544903 -17.157684 8.253453 -48.808402 -26.691859 4.500701 -35.889500 -71.631311 32.531954 0.000000 0.000000 0.000000 4.976970 -0.126960 -0.791394 51.088053 -27.195959 -16.701835 114.912061 44.580640 63.744371 0.000000 0.000000 0.000000 
0.412644 0.943901 0.150532 -1.922371 -16.323564 12.924371 4.818254 -0.486466 -16.701923 -1.651942 0.231899 4.789960 4.454506 9.624682 4.459640 0.000000 0.000000 0.000000 -0.101403 3.878178 -28.596095 -3.915201 2.309782 18.304511 0.408253 -1.768972 3.598314 0.000000 0.000000 0.000000 -0.739897 -0.117180 15.840344 0.464291 -0.148879 -0.693625 -9.618956 3.048555 11.452823 13.016548 -6.820009 -18.402530 0.000000 0.000000 0.000000 -11.801401 -17.486330 8.222209 -49.741087 -25.955376 4.249478 -25.181497 -71.350305 23.908394 0.000000 0.000000 0.000000 5.683763 -0.163221 -0.798411 52.650428 -25.067677 -16.312752 118.518008 43.601201 67.109121 0.000000 0.000000 0.000000 
0.406176 0.943911 0.153401 -1.770036 -15.433756 13.268937 4.974267 -0.500840 -16.943872 -1.408592 0.179386 4.990139 4.035088 8.868859 4.720806 0.000000 0.000000 0.000000 0.013451 3.581996 -27.167156 -4.001787 1.895464 15.265758 1.013173 -0.167710 3.477945 0.000000 0.000000 0.000000 -0.740585 -0.153880 14.534546 0.916384 -0.342807 -0.218212 -9.691222 3.473595 10.522690 13.243065 -6.612882 -19.340200 0.000000 0.000000 0.000000 -11.730192 -19.167160 8.807388 -49.108969 -27.428750 4.899101 -8.569408 -69.437143 10.863548 0.000000 0.000000 0.000000 6.759922 1.643109 -0.099662 53.923914 -21.258510 -14.931778 124.915955 45.096162 77.558332 0.000000 0.000000 0.000000 
0.399593 0.942571 0.155012 -1.914646 -14.349809 13.193688 5.712593 -0.430039 -16.940422 -1.682461 0.218214 4.947291 3.929183 8.682747 4.146317 0.000000 0.000000 0.000000 0.706944 3.360780 -25.586054 -3.887577 1.665096 13.760493 0.714767 -0.466778 2.949330 0.000000 0.000000 0.000000 -0.719337 -0.183626 13.984167 2.057326 -0.858436 -0.279101 -10.137882 4.362944 9.745617 14.091351 -6.717986 -20.234594 0.000000 0.000000 0.000000 -11.858268 -22.841739 10.291870 -47.413202 -30.228774 5.885960 8.808012 -64.951964 -1.620603 0.000000 0.000000 0.000000 8.599867 4.239010 1.033322 53.193727 -14.369888 -11.572072 131.790307 49.268582 94.110368 0.000000 0.000000 0.000000 
0.393397 0.942238 0.155257 -1.931531 -14.139766 13.010488 6.392225 -0.333812 -17.309676 -2.237172 0.322381 5.525933 4.283708 9.386690 4.142044 0.000000 0.000000 0.000000 1.166820 3.259950 -24.683701 -4.049190 1.546921 12.506065 0.904629 -0.139363 3.152597 0.000000 0.000000 0.000000 -0.663284 -0.198097 13.813725 2.398909 -1.014889 0.234508 -10.403681 4.798197 8.128126 13.867275 -6.200625 -21.272604 0.000000 0.000000 0.000000 -10.842148 -26.637063 11.760135 -44.513478 -36.566118 8.054338 19.668329 -55.561351 -7.345937 0.000000 0.000000 0.000000 9.635192 8.569994 3.028859 50.916952 -3.367329 -6.438291 136.076651 59.973877 114.409448 0.000000 0.000000 0.000000 
